<svg xmlns="http://www.w3.org/2000/svg" viewBox="0 0 434.75 161" enable-background="new 0 0 434.75 161"><path fill="#fff" d="M427.254 86.659l-.385-.985c-1.212-3.091-2.272-5.617-3.2-7.84-2.954-7.05-4.3-10.266-3.987-15.889.338-6.091 2.025-9.928 2.419-10.586.066-.08.121-.17.163-.268.188-.471-.04-1.004-.505-1.198-.131-.055-11.214-4.668-11.214-4.668-.459-.192-.991.014-1.196.472-5.998 13.265-15.215 29.335-18.894 35.631l-.074.16c-7.617 13.188-14.421 23.894-25.195 30.281l26.564-65.276c.113-.289.081-.612-.089-.866-.177-.257-.458-.411-.767-.411h-14.02c-.38 0-.717.23-.858.579l-15.114 37.485c-6.195 12.074-15.18 24.957-21.853 24.957-.893 0-1.199-.281-1.361-.523-.715-1.063-.751-4.348 3.15-13.952l19.132-47.276c.114-.282.08-.605-.092-.859-.169-.257-.455-.411-.762-.411h-14.021c-.378 0-.717.23-.86.579l-14.713 36.3c-7.754 13.166-15.833 25.335-22.394 25.335-1.303 0-2.754-.096-3.51-1.215-.87-1.29-1.239-4.5 1.974-12.453l28.839-71.441c.117-.283.084-.608-.094-.861-.174-.258-.459-.408-.758-.408h-14.026c-.373 0-.714.227-.857.576l-23.08 57.13-.075.11c-10.571 17.884-24.482 28.999-36.313 28.999-4.448 0-7.519-1.216-9.133-3.604-2.522-3.755-.918-9.512-.275-11.429 2.06.204 4.052.312 5.931.312 14.416 0 24.323-6.074 30.285-18.565 5.612-11.594 3.057-18.741 1.036-21.964-2.776-4.425-7.705-6.861-13.882-6.861-7.506 0-14.937 3.675-21.492 10.633-5.535 5.874-10.378 14.021-13.638 22.962-4.988 8.368-10.952 15.456-17.256 20.507-6.536 5.241-13.139 8.01-19.092 8.01-4.45 0-7.519-1.216-9.133-3.604-2.523-3.755-.92-9.512-.277-11.429 2.06.204 4.049.312 5.931.312 14.418 0 24.323-6.074 30.289-18.565 5.606-11.594 3.048-18.741 1.026-21.964-2.773-4.425-7.697-6.861-13.877-6.861-7.416 0-14.771 3.595-21.269 10.4-5.483 5.733-10.312 13.735-13.615 22.528l-.037.081c-8.272 18.853-16.399 29.667-22.301 29.667-.433 0-.862-.062-1.279-.177-.689-.196-1.191-.629-1.534-1.335-1.4-2.854.384-8.533 2.12-12.802l8.144-20.031.077-.18c2.835-7.035 4.89-12.112 4.89-16.13 0-6.44-4.463-10.688-12.25-11.661-.813-.1-1.637-.149-2.455-.149-5.271 0-9.477 2.076-12.121 3.853.767-1.743 1.718-3.972 2.67-6.308 3.471-7.776 5.385-16.379 4.537-20.665-2.243-11.303-12.318-17.251-22.353-15.12-12.314 2.613-17.967 13.74-22.841 24.307-1.328 2.886-2.517 5.826-3.851 8.707-5.25 11.358-9.783 22.716-14.906 34.13-3.012 6.722-5.568 13.498-8.616 20.204-2.037 4.495-4.128 9.829-7.903 13.201-1.074.962-2.708 2.138-4.159 2.417-.923.175-1.672.189-2.359.096-1.757-.251-4.064-1.327-5.312-3.638-1.481-2.747-1.209-6.822.804-12.1l19.43-47.764c.117-.286.084-.613-.09-.863-.168-.253-.46-.411-.766-.411h-14.15c-.375 0-.71.225-.85.571l-15.953 38.669c-6.595 14.996-11.361 25.827-18.4 25.827-.658 0-4.016-.132-5.802-2.785-1.808-2.689-1.487-7.267.937-13.244l.011-.036c.013-.051 1.55-4.604 15.823-40.197l4.539-11.333c1.447-3.562 2.87-7.17 3.529-10.975.192-1.115.325-2.238.375-3.369.139-3.117-.144-6.298-.985-9.309-1.179-4.233-3.174-8.048-6.413-11.067-.832-.775-1.728-1.502-2.655-2.158-3.093-2.188-6.539-3.859-10.318-4.403-2.545-.366-5.332-.382-7.88-.016-2.211.318-4.428 1.065-6.396 2.108-1.921 1.018-3.729 2.293-5.275 3.822-.873.862-1.721 1.801-2.455 2.784-.617.827-1.117 1.753-1.599 2.664-.277.521-.093 1.167.422 1.458l7.828 5.252c.247.145.552.183.833.103.281-.078.493-.282.664-.52.941-1.314 2.051-2.436 3.317-3.436 1.158-.916 2.733-1.639 4.193-1.865 1.399-.218 2.921-.021 4.275.367.408.117.809.258 1.202.416 1.831.739 6.264 3.23 6.926 9.248.235 3.811-1.011 8.405-3.061 13.23-2.05 4.825-5.017 11.777-7.347 17.419l-12.092 30.156c-7.323 16.404-4.853 26.03-1.488 31.217 3.953 6.094 10.491 8.269 15.296 8.269 10.94 0 16.476-5.223 20.532-10.656 1.441 6 5.144 8.901 12.614 10.118 2.268.371 3.993.538 5.591.538 3.898 0 7.448-1.023 11.504-3.31 11.77-6.642 17.717-22.243 23.033-35.101l23.967-54.676c.682-1.623 1.693-3.478 2.571-4.913 1.516-2.471 4.163-6.295 8.239-6.919 1.234-.189 2.082.071 2.804.462 1.196.653 2.046 1.837 2.369 3.133 1.415 5.709-2.577 14.046-4.521 18.466-2.729 6.202-5.55 12.366-8.236 18.589-5.348 12.397-10.36 24.672-15.827 37.064-3.523 7.995-5.948 14.046-9.056 21.092l-.116.268c-.112.285-.083.612.091.863.17.256.457.413.768.413h12.78c.371 0 .713-.231.854-.578.191-.466 19.115-46.831 20.653-50.707 1.991-4.432 6.152-7.588 11.431-8.658.607-.125 1.28-.191 1.952-.191 1.185 0 2.237.207 2.956.582 3.03 1.595 2.286 3.845.296 8.786-.272.664-.547 1.356-.83 2.081-.356.937-.749 1.886-1.129 2.806-.268.637-.536 1.275-.791 1.918l-5.34 13.221c-5.069 12.6-5.902 21.135-2.546 26.104 2.066 3.06 5.686 4.613 10.772 4.613 8.183 0 16.165-4.924 24.366-15.032.932 4.591 3.024 8.2 6.24 10.753 3.648 2.896 8.679 4.363 14.948 4.363 7.469 0 14.613-1.752 21.228-5.199 5.302-2.766 10.282-6.621 14.827-11.485.72 5.09 2.735 9.088 6.02 11.913 3.682 3.165 8.878 4.771 15.44 4.771 11.566 0 22.138-4.114 31.443-12.225.174 3.695 1.25 6.602 3.223 8.655 2.273 2.369 5.667 3.569 10.096 3.569 7.5 0 14.905-3.571 22.033-10.62.436 3.325 1.698 5.923 3.778 7.742 2.179 1.907 5.129 2.878 8.768 2.878 5.369 0 9.873-2.842 12.739-5.269l-1.862 4.518c-1.797 1.086-5.189 2.567-8.478 3.997-2.316 1.011-4.709 2.053-6.681 3.012-9.767 4.792-14.743 10.46-15.201 17.319-.265 3.72.815 6.989 3.117 9.466 2.604 2.797 6.664 4.334 11.427 4.334 6.382 0 11.714-2.45 16.304-7.508 4.267-4.699 7.34-11.06 9.781-16.675 1.781-4.128 3.302-8.01 3.751-9.17 10.393-4.964 24.164-14.107 39.056-40.293l.096-.227c2.069-3.688 5-9.012 7.976-14.757 1.384 7.743 3.792 13.017 5.944 17.723 2.031 4.438 3.781 8.275 4.02 13.06.12 2.444-.683 4.708-2.245 6.359-1.659 1.743-4.096 2.701-6.863 2.701-5.62 0-7.995-4.735-8.101-4.934-.126-.263-.363-.447-.65-.507-.287-.058-.578.021-.796.218l-8.538 7.618c-.331.296-.404.786-.177 1.171.96 1.581 6.354 9.471 18.43 9.471l.691-.008c5.182-.131 9.873-2.082 14.33-5.974 4.617-4.027 7.101-11.205 7.09-15.919-.006-5.625-1.029-8.241-3.078-13.439m-155-27.57c1.344 0 2.243.38 2.765 1.172.657 1.008 1.307 3.712-1.693 10.569-2.124 4.865-6.628 10.664-16.003 10.664-1.185 0-2.436-.091-3.727-.27 1.74-4.513 9.168-22.135 18.658-22.135m-57.519 0c1.34 0 2.246.38 2.763 1.172.654 1.008 1.311 3.712-1.688 10.569-2.127 4.865-6.628 10.664-16.008 10.664-1.185 0-2.433-.091-3.722-.27 1.74-4.513 9.166-22.135 18.655-22.135m113.706 87.21c-1.814.104-3.033-.922-3.033-2.552 0-2.197 2.105-4.628 6.24-7.22 3.046-1.852 6.118-3.078 9.355-4.354-5.334 12.836-10.901 14.061-12.562 14.126"/></svg>